<?xml version="1.0" encoding="UTF-8"?>
<svg version="1.1" xmlns="http://www.w3.org/2000/svg" width="512" height="512">
<path d="M0 0 C1.01790619 0.00215515 2.03581238 0.0043103 3.08456421 0.00653076 C17.69363523 0.05620146 32.02575853 0.30709809 46.375 3.3125 C47.34985352 3.51117676 48.32470703 3.70985352 49.32910156 3.91455078 C97.7109774 14.03517194 141.69928269 35.9516877 177.375 70.3125 C178.3640332 71.26068604 178.3640332 71.26068604 179.37304688 72.22802734 C188.86130305 81.37247479 197.6012044 90.66984009 205.375 101.3125 C206.23306152 102.46355017 207.09113451 103.61459177 207.94921875 104.765625 C213.98736829 112.95680614 219.34595521 121.47054105 224.375 130.3125 C224.73948242 130.94430176 225.10396484 131.57610352 225.47949219 132.22705078 C247.08534998 169.97532572 256.85198095 212.74189997 256.6875 255.9375 C256.68534485 256.95540619 256.6831897 257.97331238 256.68096924 259.02206421 C256.63129854 273.63113523 256.38040191 287.96325853 253.375 302.3125 C253.07698486 303.77478027 253.07698486 303.77478027 252.77294922 305.26660156 C242.65232806 353.6484774 220.7358123 397.63678269 186.375 433.3125 C185.74287598 433.97185547 185.11075195 434.63121094 184.45947266 435.31054688 C175.31502521 444.79880305 166.01765991 453.5387044 155.375 461.3125 C154.22394983 462.17056152 153.07290823 463.02863451 151.921875 463.88671875 C143.73224019 469.92427396 135.22961724 475.30707302 126.375 480.3125 C125.66778809 480.7146875 124.96057617 481.116875 124.23193359 481.53125 C101.09654164 494.5566741 75.92537591 503.30551461 49.9375 508.625 C49.21860596 508.77235596 48.49971191 508.91971191 47.7590332 509.0715332 C33.08339502 511.86090125 18.55831162 512.66142619 3.64770508 512.62817383 C0.70811513 512.6250221 -2.2304558 512.64854926 -5.16992188 512.67382812 C-18.54306192 512.71848737 -31.43916711 511.51301542 -44.625 509.3125 C-46.33055054 509.03031616 -46.33055054 509.03031616 -48.07055664 508.74243164 C-91.33802759 500.97044532 -132.38793216 480.98345309 -165.625 452.3125 C-166.37007813 451.67828125 -167.11515625 451.0440625 -167.8828125 450.390625 C-181.38779833 438.57948485 -194.05918743 425.82889772 -204.625 411.3125 C-205.48149066 410.16255169 -206.33826433 409.01281411 -207.1953125 407.86328125 C-213.23534209 399.67315742 -218.61867614 391.16870382 -223.625 382.3125 C-224.0271875 381.60528809 -224.429375 380.89807617 -224.84375 380.16943359 C-237.8691741 357.03404164 -246.61801461 331.86287591 -251.9375 305.875 C-252.08485596 305.15610596 -252.23221191 304.43721191 -252.3840332 303.6965332 C-255.35789088 288.05024391 -255.99800362 272.57681954 -255.9375 256.6875 C-255.93534485 255.66959381 -255.9331897 254.65168762 -255.93096924 253.60293579 C-255.88129854 238.99386477 -255.63040191 224.66174147 -252.625 210.3125 C-252.42632324 209.33764648 -252.22764648 208.36279297 -252.02294922 207.35839844 C-241.90232806 158.9765226 -219.9858123 114.98821731 -185.625 79.3125 C-184.99287598 78.65314453 -184.36075195 77.99378906 -183.70947266 77.31445312 C-174.56502521 67.82619695 -165.26765991 59.0862956 -154.625 51.3125 C-153.47394983 50.45443848 -152.32290823 49.59636549 -151.171875 48.73828125 C-142.98224019 42.70072604 -134.47961724 37.31792698 -125.625 32.3125 C-124.91778809 31.9103125 -124.21057617 31.508125 -123.48193359 31.09375 C-100.34654164 18.0683259 -75.17537591 9.31948539 -49.1875 4 C-48.46860596 3.85264404 -47.74971191 3.70528809 -47.0090332 3.5534668 C-31.36274391 0.57960912 -15.88931954 -0.06050362 0 0 Z " fill="#FED7FB" transform="translate(255.625,-0.3125)"/>
<path d="M0 0 C1.92391068 -0.01279495 1.92391068 -0.01279495 3.88668823 -0.02584839 C5.29573071 -0.02514946 6.7047731 -0.02422645 8.11381531 -0.02310181 C9.60747106 -0.02909052 11.10112372 -0.03589685 12.59477234 -0.04345703 C16.64242954 -0.06108995 20.69000212 -0.06581128 24.73769403 -0.0670886 C27.2695473 -0.06851236 29.8013792 -0.07278622 32.33322716 -0.07808304 C41.1746545 -0.09657474 50.01602162 -0.10475478 58.85746765 -0.10317993 C67.08497467 -0.10197894 75.31221918 -0.12307514 83.5396598 -0.15466726 C90.61503461 -0.1808626 97.69032386 -0.19154586 104.76574677 -0.19026911 C108.98639455 -0.18976041 113.20680896 -0.19539241 117.42740822 -0.21662521 C121.39939608 -0.23606258 125.37092928 -0.23609491 129.34293365 -0.22159195 C130.79530442 -0.2195095 132.24770406 -0.22417101 133.70002556 -0.23631287 C144.61222813 -0.32158639 152.81115877 1.0462645 161.0266571 8.55648804 C165.54269666 13.69421616 167.65299057 19.9474112 167.65919781 26.71690655 C167.66242225 27.60758632 167.6656467 28.4982661 167.66896886 29.41593617 C167.66664595 30.87753823 167.66664595 30.87753823 167.66427612 32.3686676 C167.66654168 33.40704106 167.66880724 34.44541452 167.67114145 35.51525384 C167.67748768 39.00581642 167.67665167 42.49634024 167.67582703 45.98690796 C167.67881817 48.48517914 167.6822206 50.98344986 167.68600464 53.48171997 C167.69393454 59.57091623 167.69705956 65.66009717 167.69761702 71.74929716 C167.69809224 76.70049936 167.70014732 81.65169836 167.70331764 86.60289955 C167.7121256 100.64474736 167.71673695 114.68658752 167.71598717 128.7284381 C167.71594721 129.48549585 167.71590726 130.2425536 167.71586609 131.02255249 C167.71582521 131.78053646 167.71578433 132.53852042 167.71574221 133.3194736 C167.71533599 145.59631941 167.72489898 157.87313452 167.73900446 170.14997145 C167.75337814 182.75995211 167.76027405 195.3699178 167.75941068 207.97990686 C167.75907899 215.05766967 167.76181366 222.13540032 167.77258873 229.21315575 C167.78266141 235.87221507 167.78234818 242.53119527 167.7750721 249.19026184 C167.7740263 251.63273531 167.77638885 254.075213 167.78243256 256.51767921 C167.79015615 259.85562099 167.78550498 263.19332849 167.77780151 266.53126526 C167.78294508 267.49451302 167.78808864 268.45776079 167.79338807 269.45019788 C167.74316778 279.31908681 166.46929869 286.95944487 159.53056335 294.26742554 C150.49477255 302.84667112 140.20828436 302.56291221 128.32524109 302.5262146 C126.90833863 302.52892937 125.49143759 302.53249302 124.07453918 302.53683472 C120.25024116 302.54590236 116.42605181 302.54243806 112.60175204 302.53607655 C108.58697656 302.53098827 104.57220995 302.53571573 100.55743408 302.53884888 C93.81839845 302.54247989 87.07940676 302.53771173 80.34037781 302.52816772 C72.56331566 302.51728041 64.78635836 302.52081424 57.00929874 302.53182054 C50.31519567 302.54091282 43.62112405 302.54216934 36.92701679 302.5369432 C32.93623548 302.53383473 28.94550337 302.53338325 24.95472527 302.54001617 C21.20276509 302.54581747 17.45093942 302.5417421 13.69899368 302.53022766 C11.67527702 302.52634652 9.6515489 302.53224261 7.62783813 302.53848267 C-2.93658176 302.48956846 -11.26012825 301.41453137 -19.46943665 294.26742554 C-26.13449391 286.32335941 -27.76906905 279.00222253 -27.73686218 268.85647583 C-27.7413933 267.80893198 -27.74592441 266.76138813 -27.75059283 265.68210053 C-27.76325168 262.1724114 -27.76161547 258.66287716 -27.75996399 255.15316772 C-27.76594833 252.63651835 -27.77275366 250.11987082 -27.78031921 247.60322571 C-27.7961604 241.4765271 -27.80242807 235.34988521 -27.80354397 229.22316805 C-27.80449527 224.24103032 -27.80860968 219.25890526 -27.81494522 214.27677155 C-27.83255406 200.14112584 -27.84178476 186.00551046 -27.84028427 171.86985371 C-27.84020436 171.1082155 -27.84012445 170.34657729 -27.84004211 169.56185913 C-27.83991947 168.41800131 -27.83991947 168.41800131 -27.83979435 167.25103524 C-27.83898176 154.89735459 -27.85811369 142.54379596 -27.88631885 130.19015059 C-27.9150734 117.49534435 -27.9288577 104.80059757 -27.9271313 92.10575795 C-27.92646824 84.98268178 -27.9319234 77.85973349 -27.9534874 70.73668671 C-27.97364422 64.03566698 -27.97299927 57.33496166 -27.95845413 50.63391304 C-27.95636395 48.1773419 -27.96107932 45.72075391 -27.97317505 43.26421165 C-27.98864319 39.90459496 -27.97930789 36.54590695 -27.96391296 33.18630981 C-27.97420009 32.21955724 -27.98448722 31.25280466 -27.99508607 30.25675654 C-27.90902041 21.72800804 -25.64753446 13.44552336 -19.46943665 7.26742554 C-13.46481081 2.24644257 -7.94166543 0.02395741 0 0 Z " fill="#D45EFE" transform="translate(206.4694366455078,104.73257446289063)"/>
<path d="M0 0 C11.5534393 5.77671965 17.91492113 13.00437612 22.9453125 24.97265625 C25.72673603 33.46772691 24.62478815 43.93522007 20.9453125 51.97265625 C14.44751265 63.38678085 6.50049773 69.70974629 -5.9375 73.5546875 C-15.1051992 75.36454694 -23.88144526 74.41945415 -32.0546875 69.97265625 C-33.22644531 69.33650391 -33.22644531 69.33650391 -34.421875 68.6875 C-42.69758067 63.68585297 -48.43343596 56.48229923 -51.3828125 47.24609375 C-53.7899806 35.51814684 -53.06019932 25.31098542 -47.03125 14.8984375 C-37.00806411 0.06174534 -17.00344866 -6.95007883 0 0 Z " fill="#FEDCFC" transform="translate(291.0546875,150.02734375)"/>
<path d="M0 0 C4.28390391 0.78683949 6.176295 2.33269916 9.0625 5.5625 C9.6591921 9.9039494 9.4582692 11.94068871 7.0859375 15.66796875 C6.21619347 16.70639949 5.33266968 17.73340552 4.4375 18.75 C-0.37287238 24.59547281 -4.04114924 30.52463833 -6.9375 37.5625 C-7.20457764 38.20541992 -7.47165527 38.84833984 -7.74682617 39.51074219 C-10.12331739 45.79262647 -10.44103558 51.63815206 -10.375 58.3125 C-10.36815186 59.37291504 -10.36130371 60.43333008 -10.35424805 61.52587891 C-10.19012874 69.54498167 -9.22053205 76.17567789 -5.9375 83.5625 C-5.586875 84.42359375 -5.23625 85.2846875 -4.875 86.171875 C-1.60915966 93.47465686 3.41397289 99.91397289 9.0625 105.5625 C9.19286207 110.1531071 8.90032649 113.58104611 5.875 117.125 C2.5020766 118.84893863 0.79515718 119.26237322 -2.9375 118.5625 C-4.91729623 116.94740307 -6.30222557 115.4847446 -7.9375 113.5625 C-8.53433594 112.97726563 -9.13117188 112.39203125 -9.74609375 111.7890625 C-23.55610613 97.7367692 -29.24251652 77.03459151 -29.1796875 57.79516602 C-28.85278242 37.37790065 -21.68938487 19.70527698 -7.9375 4.5625 C-3.56021564 0.68174342 -3.56021564 0.68174342 0 0 Z " fill="#BF4DFE" transform="translate(125.9375,120.4375)"/>
<path d="M0 0 C1.08509857 -0.00554901 2.17019714 -0.01109802 3.28817749 -0.01681519 C6.87355766 -0.02862201 10.45767703 -0.0043239 14.04296875 0.02148438 C16.53491152 0.02319524 19.0268561 0.02313004 21.51879883 0.0213623 C27.40962844 0.02322794 33.29999522 0.04948048 39.1907053 0.08551359 C45.21720091 0.12008028 51.24333937 0.1165377 57.26991272 0.10977936 C62.41545769 0.10671047 67.5608762 0.11882743 72.70639038 0.13591003 C75.17515266 0.14294357 77.64392927 0.14606414 80.11270142 0.1452179 C83.56237716 0.14701468 87.01137832 0.16838758 90.4609375 0.1953125 C91.48238861 0.1923819 92.50383972 0.18945129 93.5562439 0.18643188 C102.30285788 0.29181278 102.30285788 0.29181278 106.23046875 3.61523438 C107.80944928 6.77319544 108.04975046 10.22194073 107.23046875 13.61523438 C105.17782294 16.48742812 103.5267969 18.34454114 99.9803009 19.08510399 C97.09978306 19.27487669 94.25592395 19.30202094 91.36914062 19.27807617 C90.27428848 19.28844406 89.17943634 19.29881195 88.05140686 19.30949402 C84.43362916 19.33659051 80.81706136 19.32689637 77.19921875 19.31445312 C74.68485169 19.32036043 72.17048746 19.32760646 69.65612793 19.33613586 C64.38700798 19.34802107 59.11820258 19.34172382 53.84912109 19.32202148 C47.76334653 19.29965161 41.67863239 19.31726558 35.59295797 19.35507077 C29.73077054 19.39009255 23.86899228 19.39149323 18.00672913 19.37919044 C15.51561847 19.37770222 13.02448489 19.3854113 10.53343201 19.40244102 C7.05210828 19.42237724 3.57301719 19.40405533 0.09179688 19.37573242 C-0.93900497 19.38944885 -1.96980682 19.40316528 -3.03184509 19.41729736 C-9.8056717 19.30701584 -9.8056717 19.30701584 -12.52674866 17.35404396 C-14.91058264 14.65789857 -15.77302051 12.59534561 -16.39453125 9.05273438 C-14.70970986 -0.21378325 -7.84026696 -0.10180358 0 0 Z " fill="#FED1FB" transform="translate(230.76953125,282.384765625)"/>
<path d="M0 0 C1.64227821 -0.01073296 1.64227821 -0.01073296 3.31773376 -0.02168274 C6.93555467 -0.0385866 10.55213946 -0.0191556 14.16992188 0.00219727 C16.68428653 0.00136873 19.19865112 -0.00109006 21.7130127 -0.00511169 C26.98215059 -0.00797086 32.25096804 0.00621426 37.52001953 0.03417969 C43.6056057 0.06623051 49.69055098 0.06621503 55.77618265 0.04896492 C61.63834087 0.03308259 67.50026316 0.03994214 73.3624115 0.05690193 C75.8535052 0.06208721 78.34461734 0.06159778 80.83570862 0.05535698 C84.3166582 0.04991012 87.79651827 0.07026507 91.27734375 0.09765625 C92.82354652 0.08786743 92.82354652 0.08786743 94.40098572 0.07788086 C98.83254734 0.13721002 101.4224648 0.19888066 105.27819824 2.52577209 C107.40933481 4.93738853 107.79372853 5.95151002 107.70117188 9.13110352 C107.70246094 9.88391602 107.70375 10.63672852 107.70507812 11.41235352 C106.86785314 14.69196587 105.92259115 15.63471613 103.13867188 17.63110352 C99.53328935 18.25237757 95.94996087 18.18737742 92.29907227 18.16455078 C91.19461258 18.17316635 90.09015289 18.18178192 88.95222473 18.19065857 C85.29668833 18.21338483 81.64191441 18.20656679 77.98632812 18.19750977 C75.4481127 18.20274253 72.90989923 18.20901772 70.37168884 18.21629333 C65.04952846 18.22671005 59.72764553 18.2224465 54.40551758 18.20751953 C48.2579721 18.19060018 42.11113678 18.20642962 35.96366888 18.23874241 C30.04441576 18.26867422 24.12538327 18.27061968 18.20605278 18.26124382 C15.68982457 18.26042283 13.17358172 18.26731423 10.65739632 18.28201485 C7.14029135 18.29941141 3.62470936 18.2849563 0.10766602 18.26220703 C-0.93405762 18.27389923 -1.97578125 18.28559143 -3.04907227 18.29763794 C-7.78411774 18.23524422 -10.11116063 18.18438792 -14.00782776 15.31040955 C-16.46779276 11.75443557 -16.61831358 9.87022209 -15.86132812 5.63110352 C-11.57659237 -0.54024168 -6.89301617 -0.07818624 0 0 Z " fill="#FED7FC" transform="translate(230.861328125,247.368896484375)"/>
<path d="M0 0 C5.19751689 3.48017542 7.92912643 7.23647991 9.78515625 13.1953125 C10.69821294 20.00983316 9.85609465 25.57115452 5.78515625 31.1953125 C1.9158157 35.36147917 -2.37850073 37.78332971 -8.01171875 38.6015625 C-14.57347674 38.80987228 -19.04595761 38.17514572 -24.30078125 34.0859375 C-29.1546913 29.29146308 -31.47055712 24.46934954 -31.83984375 17.6328125 C-31.51923158 11.26509863 -29.10448609 7.16059993 -24.72265625 2.6640625 C-17.29954734 -3.95135062 -8.61712716 -4.89959914 0 0 Z " fill="#C04EFE" transform="translate(287.21484375,167.8046875)"/>
<path d="M0 0 C3.87039762 2.36524299 5.67917527 3.74137992 6.8125 8.1875 C5.80113825 12.9331205 3.67202155 15.7763673 0.7265625 19.5703125 C-3.62628609 25.69581436 -3.73645131 31.69913083 -3 39 C-1.6852428 44.08135891 0.17067973 48.32264991 3.75 52.1875 C6 55 6 55 6.5625 58.5625 C5.89409552 62.64719407 5.11898986 64.28088063 2 67 C-1.25 68.25 -1.25 68.25 -5 68 C-13.04819127 63.37657097 -17.89738551 54.71871176 -20.875 46.1875 C-23.93667052 34.56044171 -22.20505307 22.73151196 -16.625 12.1875 C-12.67972082 5.55657898 -8.58335064 -1.17810695 0 0 Z " fill="#BF4EFE" transform="translate(154,146)"/>
<path d="M0 0 C0.84175781 -0.01095703 1.68351562 -0.02191406 2.55078125 -0.03320312 C6.70019499 0.0158057 8.95305632 0.21784091 12.53125 2.47265625 C14.88617568 4.97242855 15.43296434 5.95917904 15.8125 9.375 C15.42835642 13.2932645 14.20743683 14.77543267 11.5 17.5625 C8.13386353 19.24556823 4.38566492 18.83135525 0.6875 18.875 C-0.52389648 18.91850586 -0.52389648 18.91850586 -1.75976562 18.96289062 C-5.86448237 19.00659359 -7.95621743 18.90456816 -11.51171875 16.66796875 C-14.07470392 13.95392356 -14.44937487 13.00968867 -14.875 9.25 C-14.5 5.5625 -14.5 5.5625 -12.5703125 2.8671875 C-8.33566338 -0.31149314 -5.1545916 -0.14603361 0 0 Z " fill="#FEC8FB" transform="translate(323.5,353.4375)"/>
<path d="M0 0 C0.88945312 -0.02771484 1.77890625 -0.05542969 2.6953125 -0.08398438 C8.969787 -0.06057216 8.969787 -0.06057216 11.73388672 1.9465332 C14.24423637 4.77986996 14.9915415 6.44643274 15.125 10.25 C13.75370527 14.44006724 12.48971183 15.99400665 9 18.6875 C5.9539315 19.33442344 3.03771885 19.25261191 -0.0625 19.125 C-0.86494141 19.11919922 -1.66738281 19.11339844 -2.49414062 19.10742188 C-6.5380822 19.02352267 -9.49067633 18.8777846 -13 16.6875 C-15.11212504 13.51931244 -15.33156464 11.55530748 -15.55859375 7.8203125 C-13.48252028 -0.10651348 -6.80745103 -0.11345752 0 0 Z " fill="#FEC8FB" transform="translate(277,353.3125)"/>
<path d="M0 0 C0.95003906 -0.01546875 1.90007812 -0.0309375 2.87890625 -0.046875 C9.7415622 -0.00826653 9.7415622 -0.00826653 13.1171875 2.25390625 C14.62233331 4.69870523 15.09530094 6.08144017 15.125 8.9375 C15.17527344 10.04931641 15.17527344 10.04931641 15.2265625 11.18359375 C14.09118643 14.803368 11.75377711 16.77370714 8.5 18.5 C5.58912635 19.11472084 2.83719315 19.06863876 -0.125 18.9375 C-0.87523437 18.93169922 -1.62546875 18.92589844 -2.3984375 18.91992188 C-6.17823117 18.83614985 -9.37920274 18.76067509 -12.5 16.5 C-14.54031755 13.43952368 -14.81593524 12.56504006 -14.875 9.0625 C-14.90335938 8.30066406 -14.93171875 7.53882813 -14.9609375 6.75390625 C-13.3736076 -1.00786794 -6.40387956 -0.10426941 0 0 Z " fill="#FEC8FB" transform="translate(229.5,353.5)"/>
<path d="M0 0 C4.34845502 0.08920379 7.5585519 0.27361685 11.08618164 3.08251953 C13.03822354 5.31192931 13.53727369 6.51188774 14.27368164 9.45751953 C13.30113543 13.34770437 11.72497665 16.06613572 8.52368164 18.45751953 C5.16762828 19.316235 1.97018282 19.25241051 -1.47631836 19.14501953 C-2.36577148 19.15984375 -3.25522461 19.17466797 -4.17163086 19.18994141 C-8.70538759 19.1324236 -10.85503486 18.92544824 -14.56225586 16.13330078 C-16.47631836 13.45751953 -16.47631836 13.45751953 -17.10131836 9.95751953 C-16.32842827 5.62933502 -14.80762279 4.22006467 -11.47631836 1.45751953 C-9.14342383 -0.875375 -3.24430875 0.02762261 0 0 Z " fill="#FDCBFB" transform="translate(325.476318359375,317.54248046875)"/>
<path d="M0 0 C0.73347656 -0.01933594 1.46695312 -0.03867187 2.22265625 -0.05859375 C6.1702291 -0.02328451 8.81035553 0.45078049 11.98828125 2.87890625 C14.52285391 5.64998647 15.30839822 6.52873807 15.1875 10.1875 C15.19330078 11.30318359 15.19330078 11.30318359 15.19921875 12.44140625 C14.09558397 15.88795284 12.64129047 16.84586204 9.5 18.625 C6.11003352 19.17229401 2.8013278 19.13869524 -0.625 19.0625 C-1.98431641 19.07313477 -1.98431641 19.07313477 -3.37109375 19.08398438 C-9.99306747 19.02021722 -9.99306747 19.02021722 -12.21826172 17.28540039 C-14.98972814 13.69516361 -15.02556627 9.97969194 -14.5 5.625 C-9.9309638 0.70559952 -6.57927466 -0.17344309 0 0 Z " fill="#FECCFB" transform="translate(276.5,317.375)"/>
<path d="M0 0 C0.73347656 -0.01933594 1.46695313 -0.03867187 2.22265625 -0.05859375 C6.19185149 -0.02309111 8.80706092 0.4536796 11.98828125 2.9140625 C14.5 5.625 14.5 5.625 15.26171875 7.6875 C15.23722656 8.326875 15.21273437 8.96625 15.1875 9.625 C15.19330078 10.5840625 15.19330078 10.5840625 15.19921875 11.5625 C14.02506934 15.02591278 12.43348259 16.44902431 9.5 18.625 C6.12714265 19.35037757 2.87569664 19.32436619 -0.5625 19.25 C-1.46033203 19.26933594 -2.35816406 19.28867187 -3.28320312 19.30859375 C-9.78342984 19.26026493 -9.78342984 19.26026493 -13.08203125 16.3359375 C-14.37889595 13.85653226 -15.09160022 12.38604815 -15.125 9.625 C-15.15851563 8.985625 -15.19203125 8.34625 -15.2265625 7.6875 C-12.7488614 0.6540259 -6.47586781 -0.17071708 0 0 Z " fill="#FECCFB" transform="translate(229.5,317.375)"/>
</svg>
